<svg width="134" height="38" viewBox="0 0 134 38" fill="none" xmlns="http://www.w3.org/2000/svg">
<g clip-path="url(#clip0_710_505)">
<path fill-rule="evenodd" clip-rule="evenodd" d="M21.9359 25.8569H21.4041C21.2425 25.669 21.0532 25.498 20.8394 25.3481C20.6278 25.195 20.297 25.119 19.8482 25.119C19.4952 25.119 19.1091 25.1845 18.6975 25.3101C18.2839 25.442 17.8127 25.5845 17.2831 25.7492C16.7514 25.9149 16.1526 26.0627 15.4964 26.1883C14.8339 26.3171 14.099 26.3825 13.2993 26.3825C11.8136 26.3825 10.3662 26.1123 8.96447 25.574C7.5596 25.0367 6.23236 24.1585 4.98276 22.9414C3.82355 21.793 2.8579 20.4345 2.07836 18.8649C1.29988 17.2942 0.910645 15.4818 0.910645 13.4182C0.910645 11.6618 1.22863 9.98765 1.86672 8.39376C2.50482 6.80199 3.39071 5.39599 4.5212 4.17787C5.65276 2.96187 6.98637 1.99498 8.51993 1.28143C10.0545 0.565762 11.7285 0.208984 13.546 0.208984C14.2777 0.208984 14.9275 0.277595 15.4964 0.41904C16.0622 0.559429 16.5663 0.718818 17.0172 0.89404C17.4639 1.06926 17.8776 1.2276 18.2551 1.36798C18.6337 1.50626 18.9964 1.57804 19.3516 1.57804C19.8238 1.57804 20.1599 1.50204 20.363 1.34898C20.5608 1.1991 20.7437 1.0281 20.9096 0.842318H21.4414V7.87021H21.0532C20.8394 6.97932 20.5672 6.09899 20.2364 5.23343C19.9067 4.36787 19.4473 3.60048 18.856 2.93232C18.2658 2.26415 17.5181 1.72476 16.6099 1.31415C15.7006 0.90354 14.5744 0.699818 13.2269 0.699818C11.9784 0.699818 10.9043 0.89404 10.0088 1.28143C9.11123 1.66671 8.35509 2.17971 7.74039 2.82782C7.12782 3.47065 6.63968 4.21904 6.27384 5.0751C5.90906 5.9301 5.6283 6.83154 5.44112 7.78154C5.25076 8.72732 5.12739 9.68893 5.07209 10.6611C5.00934 11.6322 4.98276 12.5527 4.98276 13.4182C4.98276 15.8798 5.18163 17.917 5.58257 19.5309C5.98563 21.1502 6.54609 22.4263 7.26288 23.3626C7.98393 24.2999 8.85387 24.9554 9.86525 25.3312C10.8809 25.7028 11.9986 25.8938 13.2269 25.8938C14.8094 25.8938 16.0845 25.669 17.0502 25.2257C18.0201 24.7802 18.7975 24.1997 19.3878 23.4861C19.9769 22.7704 20.4279 21.964 20.7331 21.0615C21.0383 20.1611 21.3084 19.2607 21.5477 18.3719H21.9359V25.8569Z" fill="white"/>
<path fill-rule="evenodd" clip-rule="evenodd" d="M26.6799 13.3127C26.6799 15.4217 26.8214 17.2583 27.1032 18.8279C27.3882 20.3997 27.8572 21.7128 28.5198 22.7641C29.1791 23.8175 30.0299 24.605 31.069 25.119C32.108 25.6363 33.3938 25.8938 34.9284 25.8938C36.4385 25.8938 37.7179 25.6363 38.7665 25.119C39.8162 24.605 40.6712 23.8175 41.3338 22.7641C41.9963 21.7128 42.4664 20.3997 42.7482 18.8279C43.0311 17.2583 43.1747 15.4217 43.1747 13.3127C43.1747 11.6966 43.0683 10.1312 42.8567 8.62282C42.643 7.11337 42.2335 5.76754 41.6337 4.58215C41.0307 3.39993 40.1959 2.45626 39.1217 1.75326C38.0476 1.05026 36.648 0.699818 34.9284 0.699818C33.2023 0.699818 31.806 1.05026 30.7308 1.75326C29.6588 2.45626 28.8197 3.39993 28.2188 4.58215C27.619 5.76754 27.2074 7.11337 26.9979 8.62282C26.7842 10.1312 26.6799 11.6966 26.6799 13.3127ZM22.6089 13.3127C22.6089 11.4412 22.98 9.70687 23.7224 8.11299C24.4679 6.5191 25.4208 5.13843 26.5906 3.96887C27.7583 2.79826 29.0728 1.87676 30.5372 1.2086C31.9995 0.540429 33.4618 0.208984 34.9284 0.208984C36.4843 0.208984 38.0008 0.540429 39.4748 1.2086C40.9499 1.87676 42.2643 2.79826 43.4236 3.96887C44.5764 5.13843 45.5027 6.5191 46.1993 8.11299C46.899 9.70687 47.2458 11.4412 47.2458 13.3127C47.2458 14.954 46.9256 16.5553 46.2886 18.127C45.6505 19.6967 44.7784 21.09 43.6692 22.3081C42.5621 23.5252 41.2572 24.51 39.7577 25.2584C38.2603 26.0089 36.648 26.3825 34.9284 26.3825C33.1587 26.3825 31.5156 26.0194 30.0055 25.2943C28.4953 24.568 27.1925 23.6033 26.0939 22.3947C24.9975 21.1892 24.1435 19.798 23.5267 18.2136C22.9141 16.6334 22.6089 15.0015 22.6089 13.3127Z" fill="white"/>
<path fill-rule="evenodd" clip-rule="evenodd" d="M75.5751 15.1044L79.4654 4.88031L83.3599 15.1044H75.5751ZM57.8988 12.189H54.6424V1.33047C54.9498 1.28719 55.3199 1.25447 55.758 1.24392C56.1941 1.23336 56.6237 1.22808 57.048 1.22808C57.6627 1.22808 58.2796 1.28719 58.9091 1.40331C59.5302 1.52047 60.0971 1.76536 60.6033 2.13903C61.1127 2.51375 61.5285 3.07108 61.8433 3.81103C62.1634 4.54675 62.3219 5.52631 62.3219 6.74231C62.3219 7.82319 62.2198 8.71092 62.006 9.41392C61.7923 10.1148 61.4924 10.6743 61.1021 11.0817C60.7118 11.4923 60.2438 11.7794 59.7046 11.9441C59.1601 12.1066 58.5593 12.189 57.8988 12.189ZM91.1117 25.3644L81.485 0.209473H80.6352L71.2797 24.8282C71.0287 25.0689 70.7437 25.2525 70.4278 25.3644C70.0981 25.4816 69.7802 25.5418 69.4728 25.5418C68.7869 25.5418 68.2923 25.2937 67.9861 24.8029C67.6808 24.311 67.4564 23.7621 67.3129 23.152C67.2171 22.754 67.1533 22.2632 67.1172 21.6763C67.0842 21.0905 67.047 20.4804 67.0119 19.8491C66.9789 19.2137 66.9289 18.6025 66.8726 18.003C66.812 17.4076 66.7131 16.8735 66.5695 16.4028C66.3344 15.61 65.9335 14.9598 65.3645 14.4553C64.7998 13.9518 64.1809 13.5475 63.5077 13.2445C62.8345 12.9395 62.1762 12.721 61.5285 12.5933C60.8777 12.4634 60.3651 12.3769 59.9843 12.3294V12.2597C61.3531 12.0961 62.4527 11.7752 63.279 11.2928C64.1032 10.8125 64.735 10.2869 65.171 9.71158C65.607 9.13842 65.8899 8.57686 66.0228 8.02692C66.1494 7.47803 66.2164 7.02519 66.2164 6.67264C66.2164 5.97175 66.0462 5.22336 65.7049 4.42536C65.3603 3.62736 64.7786 2.91381 63.9501 2.28153C63.0302 1.55531 62.039 1.11619 60.9798 0.964195C59.9163 0.809028 58.6869 0.735139 57.2969 0.735139C57.014 0.735139 56.7301 0.741473 56.445 0.753084C56.1664 0.763639 55.8803 0.769973 55.5953 0.769973C55.3135 0.79425 55.0327 0.809028 54.7488 0.823806C54.4638 0.835417 54.1809 0.84175 53.8969 0.84175H47.1714V1.33047H51.1031V25.3644H47.1714V25.8574H58.572V25.3644H54.6424V12.6819H58.1817C58.5827 12.6819 59.0517 12.7104 59.5983 12.7685C60.1407 12.8265 60.6618 13.0081 61.1733 13.3131C61.6795 13.6182 62.122 14.1006 62.5006 14.754C62.8781 15.4095 63.1131 16.3225 63.2088 17.4963L63.4556 20.6925C63.5258 21.5834 63.6513 22.3624 63.8278 23.0306C64.0022 23.6966 64.2798 24.2571 64.6584 24.7163C65.0359 25.1723 65.5368 25.5185 66.1643 25.7497C66.7854 25.9851 67.5724 26.1023 68.5146 26.1023C69.0113 26.1023 69.4313 26.0738 69.7738 26.0157C70.0226 25.9724 70.2353 25.9165 70.4257 25.8574H75.5751V25.3644H71.6455L75.3592 15.5974H83.5737L87.2884 25.3644H83.3599V25.8574H94.2628V25.3644H91.1117Z" fill="white"/>
<path fill-rule="evenodd" clip-rule="evenodd" d="M91.8765 25.3639H95.8061V1.32995H91.8765V0.842285H103.272V1.32995H99.3454V25.3639H105.645C107.72 25.3639 109.352 24.7211 110.531 23.4322C111.708 22.1455 112.571 20.387 113.115 18.1618H113.504V25.8568H91.8765V25.3639Z" fill="white"/>
<path fill-rule="evenodd" clip-rule="evenodd" d="M126.118 30.914C125.356 30.9572 125.065 30.5308 124.677 30.2004C124.525 30.3556 124.276 30.4126 123.956 30.3946C123.609 30.7493 123.435 31.4565 123.562 32.0867C123.837 32.0339 123.875 31.7468 124.282 31.8249C124.517 32.2915 124.183 32.7095 124.018 32.9966C125.264 32.8435 125.8 31.9885 126.118 30.914ZM122.184 35.5341C122.477 33.8537 119.855 34.4522 120.481 32.8667C121.008 33.1264 121.222 33.6911 122.119 33.5792C121.93 32.9259 121.696 32.3157 121.725 31.4333C121.389 31.4502 120.618 31.4333 120.352 31.1736C120.101 31.6623 119.253 31.561 118.649 31.6951C118.52 31.8524 118.607 32.2207 118.578 32.4762C118.258 32.5385 118.231 32.3052 117.992 32.2809C117.976 32.0318 117.988 31.8006 118.057 31.6296C117.297 31.1715 116.021 31.2254 115.828 30.2004C116.665 30.4664 118.077 31.3056 119.498 30.7862C119.002 30.1286 117.963 30.0115 117.6 29.2251C116.804 29.1681 115.963 29.1575 115.828 28.4418C116.331 28.2624 116.603 28.8377 117.272 28.7057C117.355 28.4545 116.904 27.9447 117.074 27.6006C117.824 27.9162 117.593 29.2071 118.649 29.2251C119.168 28.6255 118.495 28.0714 118.188 27.6629C117.837 27.1952 117.482 26.7223 117.338 26.1703C117.915 26.1471 118.109 26.9208 118.516 27.4011C119.027 28.0048 119.791 28.52 119.367 29.547C119.744 30.0167 120.919 30.8274 121.725 30.4601C122.219 30.2352 122.328 29.337 121.923 28.8335C121.648 28.7986 121.557 28.9475 121.332 28.9633C120.861 28.7247 120.734 28.4049 119.96 28.5759C119.766 28.4397 119.609 28.2645 119.567 27.989C119.787 28.0091 119.943 28.0914 120.219 28.0524C119.986 26.8152 118.665 25.6879 117.074 25.7122C116.183 25.7291 115.693 26.2959 114.978 26.4279C114.841 25.8758 115.637 25.7597 115.961 25.4504C115.888 25.0303 115.369 25.0419 115.239 24.6714C116.259 24.4635 116.196 25.3269 117.008 25.3227C117.033 24.9416 116.555 24.1785 116.815 23.5683C117.678 23.5747 117.114 25.0007 117.667 25.3227C118.56 25.3438 119.253 25.5665 119.762 25.974C120.339 25.7037 120.508 24.5521 120.219 23.8259C119.669 23.6159 119.321 23.1968 119.106 22.6574C118.726 22.6036 118.258 22.7397 118.057 22.6574C118.03 22.4326 118.084 22.2901 118.123 22.1381C118.349 22.0346 118.7 21.9312 118.975 22.0716C119.225 21.7106 118.737 20.6181 119.367 20.6392C119.722 21.1416 119.28 22.6859 120.088 22.9171C120.217 21.4615 120.234 19.895 121.202 19.2733C121.439 20.0776 120.849 20.5579 120.747 21.5501C120.598 22.9846 121.372 24.7865 120.875 25.7787C120.803 25.9222 120.424 26.1597 120.417 26.2315C120.381 26.6221 121.193 27.152 121.135 27.5351C121.302 27.3905 121.297 27.0834 121.463 26.9493C121.621 26.9208 121.605 27.0665 121.794 27.0137C123.017 25.6341 121.089 23.8734 121.401 22.5909C121.64 22.744 121.646 23.125 121.794 23.372C122.113 22.9086 121.886 21.9006 122.512 21.7454C122.623 22.2489 122.242 23.0142 122.315 23.8259C122.361 24.3516 122.623 24.7495 122.643 25.1907C123.106 24.9353 123.127 24.2386 123.233 23.6327C123.948 24.1584 123.36 25.4779 122.906 25.842C122.882 26.3476 122.943 26.6917 122.841 27.0137C122.81 27.1118 122.512 27.4169 122.512 27.4686C122.535 28.0217 123.612 28.3205 123.298 29.4193C123.433 29.2705 123.562 29.1142 123.695 28.9633C123.304 27.3905 124.159 26.0901 124.677 24.9955C124.194 24.3125 124.246 23.5103 123.956 22.7872C123.821 22.4484 123.401 22.1127 123.169 21.7454C122.917 21.3475 122.847 20.9189 122.643 20.5115C122.457 20.1315 121.899 19.895 121.923 19.401C122.159 19.2501 122.309 19.6448 122.512 19.7293C122.601 19.1551 122.278 18.5534 122.581 18.166C123.127 18.3159 122.917 19.077 122.971 19.533C123.083 20.445 123.298 21.3475 123.891 21.68C123.85 21.1743 123.752 20.54 123.891 20.0555C124.627 20.1251 124.089 21.4572 124.479 21.8752C125.553 21.5786 125.404 20.0618 125.857 19.1435C126.43 19.4464 126.094 20.4429 125.92 20.9643C125.709 21.6019 125.314 22.0948 125.003 22.3956C124.837 22.4484 124.745 22.573 124.544 22.5909C124.606 23.352 124.88 23.9061 125.136 24.4751C125.567 23.999 126.38 23.4839 126.511 22.6574C126.619 21.966 126.06 20.8218 126.903 20.5115C127.03 20.8946 126.667 21.6409 126.903 22.1381C127.481 21.5153 127.545 20.3848 127.691 19.3387C128.308 19.6765 127.944 21.0329 127.822 21.6135C128.64 21.4509 129.036 20.8714 129.655 20.5115C129.404 21.5353 128.507 21.9249 127.624 22.3312C126.864 23.6359 125.954 24.7907 125.136 26.0362C125.166 26.2421 125.329 26.3223 125.329 26.5577C124.818 26.9271 124.141 27.9489 124.808 28.7057C125.663 28.4915 125.273 27.0422 125.92 26.6221C125.796 26.2811 125.702 25.6488 126.118 25.5169C126.415 25.4821 126.272 25.8853 126.38 26.0362C126.504 26.1555 126.654 25.7533 126.837 25.7122C126.962 23.8175 128.262 22.7482 129.917 22.5909C129.003 23.3952 127.618 23.7351 127.559 25.3871C127.607 25.537 127.691 25.1802 127.888 25.2572C128.247 25.4377 128.145 26.0151 128.607 25.974C129.244 25.9149 129.651 22.8347 130.902 23.2422C130.453 24.1827 129.639 24.7643 129.394 25.9085C130.272 25.974 130.575 25.139 131.161 25.1274C131.213 25.3723 131.085 25.4377 131.1 25.6488C130.357 26.2959 128.524 27.2565 127.493 26.2315C126.733 26.5619 126.415 27.3293 126.118 28.1188C127.024 28.3849 127.628 27.8032 128.345 27.6629C128.141 28.3141 127.298 28.8788 126.185 28.8335C126 29.0879 125.927 29.4478 125.79 29.7434C126.423 30.1466 127.761 30.0421 128.214 29.547C128.339 28.5886 129.126 28.2899 129.984 28.0524C130.326 27.6154 130.391 26.8976 131.226 26.9493C131.039 27.3451 130.694 27.589 130.572 28.0524C130.91 28.178 131.405 28.1389 131.359 28.6382C130.372 28.5084 129.115 28.5453 128.868 29.3549C129.442 29.7328 130.268 29.4193 130.705 29.2251C131.673 28.7902 132.327 27.7452 133.064 27.2111C133.367 27.6153 132.807 28.0217 132.541 28.3141C132.1 28.7944 131.691 29.2789 131.1 29.6135C131.226 29.7697 131.469 30.0706 131.292 30.326C131.199 30.3218 131.105 30.3197 131.1 30.3946C130.793 30.3925 130.9 29.984 130.64 29.9386C130.202 30.1445 129.33 30.3556 128.804 30.0685C128.407 30.306 128.081 30.611 127.493 30.6543C127.607 30.9741 128.123 30.8971 128.54 30.914C128.313 31.5367 126.949 31.2127 126.708 30.8496C126.536 31.2021 126.532 31.7162 126.312 32.0212C126.6 32.4276 127.439 32.1236 127.822 32.0212C127.705 32.5817 126.679 32.7717 126.118 32.4762C125.599 33.1739 124.937 33.7323 124.153 34.1672C124.192 34.8142 124 35.2312 123.758 35.5964C123.141 35.5964 122.705 35.6988 122.184 35.5341Z" fill="#E21A23"/>
<path fill-rule="evenodd" clip-rule="evenodd" d="M3.47504 35.1282C3.68986 35.1282 3.89405 35.1092 4.08655 35.0712C4.27904 35.0342 4.44813 34.9656 4.59596 34.8664C4.74166 34.7672 4.85864 34.6342 4.94372 34.4684C5.02774 34.3027 5.07028 34.0948 5.07028 33.8435C5.07028 33.4414 4.93309 33.1405 4.6587 32.94C4.38432 32.7384 3.98977 32.6392 3.47504 32.6392H1.49056V35.1282H3.47504ZM3.47504 32.1314C3.70794 32.1314 3.90788 32.104 4.07697 32.048C4.2482 31.9932 4.38858 31.9172 4.50237 31.8211C4.6151 31.725 4.69912 31.6132 4.75655 31.4854C4.81291 31.3577 4.84163 31.2205 4.84163 31.0738C4.84163 30.2937 4.38539 29.9042 3.47504 29.9042H1.49056V32.1314H3.47504ZM3.47504 29.3965C3.72921 29.3965 3.97488 29.4218 4.20885 29.4714C4.44388 29.52 4.6502 29.6055 4.8278 29.7248C5.00647 29.844 5.14897 30.0013 5.25745 30.1966C5.3638 30.3919 5.41804 30.6347 5.41804 30.926C5.41804 31.0896 5.39358 31.2479 5.34253 31.402C5.29148 31.5562 5.21917 31.6965 5.12558 31.8211C5.03199 31.9467 4.92139 32.0533 4.79483 32.1399C4.66721 32.2275 4.5247 32.2898 4.36624 32.3235V32.3404C4.75655 32.3932 5.06709 32.5579 5.29999 32.8344C5.53183 33.112 5.64775 33.454 5.64775 33.8615C5.64775 33.9607 5.63924 34.0726 5.62223 34.1982C5.60521 34.3228 5.57118 34.4505 5.52013 34.5824C5.46909 34.7133 5.3957 34.8432 5.29999 34.9719C5.20321 35.0997 5.07453 35.2115 4.91394 35.3076C4.75229 35.4037 4.55448 35.4828 4.31945 35.544C4.08442 35.6042 3.80366 35.6348 3.47504 35.6348H0.913086V29.3965H3.47504Z" fill="white"/>
<path fill-rule="evenodd" clip-rule="evenodd" d="M11.2847 32.4634C11.2187 32.2713 11.1283 32.1003 11.0082 31.9525C10.8901 31.8037 10.7455 31.6844 10.5764 31.5947C10.4062 31.5039 10.2137 31.4585 9.99892 31.4585C9.77877 31.4585 9.58309 31.5039 9.414 31.5947C9.24384 31.6844 9.0992 31.8037 8.98116 31.9525C8.86311 32.1003 8.76739 32.2723 8.69614 32.4676C8.62595 32.6629 8.57916 32.8624 8.55682 33.0661H11.391C11.3846 32.8571 11.3496 32.6566 11.2847 32.4634ZM8.63765 34.1459C8.69189 34.3581 8.77803 34.5492 8.89608 34.7181C9.01519 34.8869 9.16514 35.0273 9.34593 35.1371C9.52673 35.248 9.74474 35.3028 9.99892 35.3028C10.3892 35.3028 10.6944 35.1983 10.9156 34.9893C11.1358 34.7782 11.2889 34.4996 11.374 34.1502H11.9079C11.7941 34.6621 11.5867 35.059 11.2847 35.3387C10.9816 35.6174 10.553 35.7578 9.99892 35.7578C9.65435 35.7578 9.35657 35.6955 9.10346 35.5688C8.85247 35.4443 8.64722 35.2722 8.48876 35.0537C8.33136 34.8352 8.21331 34.5829 8.13674 34.2937C8.06123 34.0056 8.02295 33.7016 8.02295 33.3807C8.02295 33.0841 8.06123 32.7927 8.13674 32.5067C8.21331 32.2217 8.33136 31.9662 8.48876 31.7425C8.64722 31.5176 8.85247 31.3382 9.10346 31.201C9.35657 31.0648 9.65435 30.9951 9.99892 30.9951C10.3499 30.9951 10.6487 31.069 10.8986 31.2136C11.1475 31.3593 11.3496 31.5503 11.5048 31.7857C11.6612 32.0222 11.7728 32.2934 11.8398 32.5985C11.9079 32.9046 11.9366 33.2149 11.926 33.5295H8.55682C8.55682 33.7269 8.58341 33.9338 8.63765 34.1459Z" fill="white"/>
<path fill-rule="evenodd" clip-rule="evenodd" d="M17.2035 33.1717C17.1695 33.2361 17.1035 33.2814 17.0078 33.311C16.9121 33.3406 16.827 33.3606 16.7537 33.3722C16.5271 33.4134 16.2942 33.4503 16.0539 33.482C15.8125 33.5137 15.5934 33.5612 15.3966 33.6256C15.1978 33.6899 15.0351 33.7818 14.9085 33.9C14.7809 34.0203 14.7171 34.1913 14.7171 34.4119C14.7171 34.5523 14.7437 34.6758 14.7979 34.7835C14.8511 34.8912 14.9234 34.9851 15.0138 35.0632C15.1042 35.1413 15.2095 35.2015 15.3275 35.2427C15.4477 35.2828 15.5689 35.3039 15.6934 35.3039C15.8965 35.3039 16.0922 35.2712 16.2783 35.2078C16.4654 35.1434 16.6271 35.0495 16.7664 34.9271C16.9047 34.8057 17.0153 34.6568 17.0972 34.4816C17.179 34.3075 17.2205 34.1101 17.2205 33.8884V33.1717H17.2035ZM14.5299 31.8258C14.6203 31.6337 14.7437 31.4764 14.9 31.354C15.0542 31.2316 15.2371 31.1408 15.4477 31.0827C15.6561 31.0247 15.888 30.9951 16.1432 30.9951C16.3357 30.9951 16.5271 31.0152 16.7196 31.0521C16.9121 31.0901 17.0844 31.1619 17.2365 31.2664C17.3896 31.372 17.5141 31.5187 17.6108 31.7076C17.7065 31.8976 17.7555 32.1425 17.7555 32.4454V34.8405C17.7555 35.0611 17.8586 35.173 18.0681 35.173C18.1309 35.173 18.1872 35.1614 18.2383 35.1371V35.6005C18.1755 35.6121 18.1202 35.6206 18.0724 35.6269C18.0245 35.6322 17.9639 35.6353 17.8905 35.6353C17.7555 35.6353 17.6459 35.6163 17.564 35.5783C17.4821 35.5403 17.4183 35.4865 17.3726 35.4168C17.3269 35.3472 17.2982 35.2638 17.2833 35.1688C17.2705 35.0717 17.2631 34.9651 17.2631 34.8489H17.2461C17.1493 34.9946 17.0514 35.1244 16.9536 35.2374C16.8536 35.3514 16.743 35.4453 16.6218 35.5224C16.5005 35.5973 16.3623 35.6565 16.206 35.6966C16.0507 35.7377 15.8656 35.7578 15.6508 35.7578C15.4477 35.7578 15.2563 35.7335 15.0776 35.6839C14.9 35.6343 14.7437 35.5551 14.6107 35.4475C14.4778 35.3398 14.3736 35.2026 14.298 35.0368C14.2204 34.8701 14.1821 34.6748 14.1821 34.4468C14.1821 34.1322 14.2513 33.8863 14.3863 33.7089C14.5224 33.5316 14.7011 33.3954 14.9244 33.3026C15.1478 33.2097 15.4009 33.1442 15.6795 33.1052C15.9603 33.0672 16.2453 33.0313 16.5324 32.9965C16.6462 32.9848 16.7451 32.9711 16.8292 32.9532C16.9153 32.9352 16.9855 32.9046 17.0419 32.8613C17.0982 32.817 17.1418 32.7579 17.1737 32.6819C17.2046 32.607 17.2205 32.5067 17.2205 32.3853C17.2205 32.1984 17.1897 32.0465 17.1312 31.9261C17.0716 31.8068 16.9897 31.7118 16.8845 31.6422C16.7813 31.5725 16.6579 31.524 16.5197 31.4976C16.3825 31.4722 16.2336 31.4585 16.0741 31.4585C15.7348 31.4585 15.4583 31.5419 15.2435 31.7076C15.0287 31.8744 14.9159 32.1393 14.9042 32.5067H14.3693C14.3863 32.2449 14.4395 32.0179 14.5299 31.8258Z" fill="white"/>
<path fill-rule="evenodd" clip-rule="evenodd" d="M23.2782 31.7472C23.0794 31.555 22.8029 31.459 22.4466 31.459C22.1924 31.459 21.9691 31.5139 21.7766 31.6247C21.583 31.7356 21.4246 31.8812 21.297 32.0617C21.1704 32.2422 21.0736 32.448 21.0077 32.6782C20.9439 32.9083 20.9099 33.1416 20.9099 33.3812C20.9099 33.6197 20.9439 33.854 21.0077 34.0842C21.0736 34.3153 21.1704 34.5201 21.297 34.7006C21.4246 34.8811 21.583 35.0268 21.7766 35.1376C21.9691 35.2474 22.1924 35.3033 22.4466 35.3033C22.6104 35.3033 22.7667 35.2717 22.9124 35.2073C23.0602 35.1439 23.19 35.0542 23.3027 34.9402C23.4165 34.8273 23.5101 34.6922 23.5835 34.5349C23.6558 34.3766 23.7015 34.2056 23.7185 34.0187H24.2535C24.1801 34.5666 23.9844 34.993 23.6675 35.2991C23.3506 35.6042 22.9443 35.7583 22.4466 35.7583C22.1127 35.7583 21.817 35.6949 21.5596 35.5693C21.3023 35.4448 21.0853 35.2748 20.9099 35.0595C20.7354 34.8442 20.6025 34.5908 20.511 34.3027C20.4206 34.0145 20.376 33.7073 20.376 33.3812C20.376 33.055 20.4206 32.7478 20.511 32.4597C20.6025 32.1704 20.7354 31.9192 20.9099 31.7039C21.0853 31.4885 21.3023 31.3165 21.5596 31.1888C21.817 31.06 22.1127 30.9956 22.4466 30.9956C22.9156 30.9956 23.3133 31.1233 23.6388 31.3798C23.9642 31.6374 24.1567 32.0248 24.2194 32.542H23.6856C23.6111 32.2053 23.4761 31.9403 23.2782 31.7472Z" fill="white"/>
<path fill-rule="evenodd" clip-rule="evenodd" d="M27.3006 29.3965V31.9045H27.3176C27.4186 31.63 27.5994 31.4105 27.86 31.2448C28.1205 31.079 28.4055 30.9957 28.7171 30.9957C29.0224 30.9957 29.2776 31.0368 29.485 31.1181C29.6913 31.1994 29.8561 31.3134 29.9816 31.4633C30.1061 31.6121 30.1933 31.7936 30.2443 32.009C30.2943 32.2243 30.3209 32.466 30.3209 32.7342V35.6348H29.7859V32.8218C29.7859 32.6297 29.7689 32.4502 29.7349 32.2834C29.7019 32.1177 29.6413 31.9731 29.5573 31.8517C29.4722 31.7293 29.3584 31.6332 29.2138 31.5635C29.0691 31.4928 28.8894 31.458 28.6746 31.458C28.4598 31.458 28.2683 31.497 28.1024 31.5762C27.9355 31.6554 27.794 31.763 27.677 31.8992C27.5622 32.0364 27.4707 32.2 27.4069 32.389C27.341 32.579 27.3059 32.7838 27.3006 33.0054V35.6348H26.7656V29.3965H27.3006Z" fill="white"/>
<path fill-rule="evenodd" clip-rule="evenodd" d="M40.0685 32.3584C40.243 32.3584 40.4099 32.332 40.5694 32.276C40.7268 32.2201 40.8662 32.1399 40.9842 32.0354C41.1033 31.9309 41.199 31.8042 41.2692 31.6554C41.3394 31.5065 41.3756 31.3366 41.3756 31.1445C41.3756 30.7592 41.2671 30.4563 41.0523 30.2357C40.8374 30.014 40.5099 29.9042 40.0685 29.9042H37.9139V32.3584H40.0685ZM40.1111 29.3965C40.3589 29.3965 40.595 29.4292 40.8194 29.4925C41.0427 29.5569 41.2384 29.654 41.4043 29.7849C41.5713 29.9169 41.7042 30.0858 41.8031 30.2927C41.9031 30.4985 41.952 30.7423 41.952 31.022C41.952 31.4179 41.8531 31.762 41.6542 32.0533C41.4575 32.3436 41.1629 32.5304 40.7726 32.6117V32.6297C40.9704 32.6592 41.1342 32.713 41.265 32.7912C41.3947 32.8693 41.5011 32.9706 41.583 33.092C41.6648 33.2155 41.7244 33.3559 41.7616 33.5174C41.7978 33.6768 41.8212 33.8499 41.8329 34.0367C41.8382 34.1412 41.8446 34.27 41.8499 34.4209C41.8563 34.5729 41.8669 34.7249 41.8839 34.8801C41.9009 35.0342 41.9275 35.1799 41.9647 35.3171C42.0009 35.4533 42.0509 35.5599 42.1136 35.6348H41.4766C41.4426 35.5778 41.416 35.505 41.3958 35.4205C41.3756 35.3361 41.3628 35.2495 41.3532 35.1588C41.3447 35.068 41.3373 34.9793 41.332 34.8928C41.3266 34.8052 41.3213 34.7292 41.316 34.6658C41.3043 34.4442 41.2862 34.2246 41.2607 34.0061C41.2352 33.7876 41.1809 33.5923 41.0991 33.4203C41.0172 33.2493 40.8981 33.1099 40.7428 33.0054C40.5865 32.9009 40.3738 32.8545 40.1015 32.865H37.9139V35.6348H37.3364V29.3965H40.1111Z" fill="white"/>
<path fill-rule="evenodd" clip-rule="evenodd" d="M47.7095 32.4634C47.6435 32.2713 47.5531 32.1003 47.433 31.9525C47.3149 31.8037 47.1703 31.6844 47.0012 31.5947C46.831 31.5039 46.6385 31.4585 46.4237 31.4585C46.2036 31.4585 46.0079 31.5039 45.8388 31.5947C45.6686 31.6844 45.524 31.8037 45.406 31.9525C45.2879 32.1003 45.1922 32.2723 45.1209 32.4676C45.0508 32.6629 45.004 32.8624 44.9816 33.0661H47.8158C47.8095 32.8571 47.7744 32.6566 47.7095 32.4634ZM45.0625 34.1459C45.1167 34.3581 45.2028 34.5492 45.3209 34.7181C45.44 34.8869 45.5899 35.0273 45.7707 35.1371C45.9515 35.248 46.1695 35.3028 46.4237 35.3028C46.814 35.3028 47.1192 35.1983 47.3404 34.9893C47.5606 34.7782 47.7137 34.4996 47.7988 34.1502H48.3327C48.2189 34.6621 48.0115 35.059 47.7095 35.3387C47.4064 35.6174 46.9778 35.7578 46.4237 35.7578C46.0791 35.7578 45.7814 35.6955 45.5283 35.5688C45.2773 35.4443 45.072 35.2722 44.9136 35.0537C44.7562 34.8352 44.6381 34.5829 44.5615 34.2937C44.486 34.0056 44.4478 33.7016 44.4478 33.3807C44.4478 33.0841 44.486 32.7927 44.5615 32.5067C44.6381 32.2217 44.7562 31.9662 44.9136 31.7425C45.072 31.5176 45.2773 31.3382 45.5283 31.201C45.7814 31.0648 46.0791 30.9951 46.4237 30.9951C46.7747 30.9951 47.0735 31.069 47.3234 31.2136C47.5723 31.3593 47.7744 31.5503 47.9296 31.7857C48.086 32.0222 48.1976 32.2934 48.2646 32.5985C48.3327 32.9046 48.3614 33.2149 48.3508 33.5295H44.9816C44.9816 33.7269 45.0082 33.9338 45.0625 34.1459Z" fill="white"/>
<path fill-rule="evenodd" clip-rule="evenodd" d="M53.3633 32.0047C53.3006 31.8802 53.2176 31.7757 53.1134 31.6944C53.0092 31.6131 52.889 31.5529 52.7529 31.5149C52.6178 31.478 52.4732 31.4579 52.3211 31.4579C52.2009 31.4579 52.0807 31.4717 51.9595 31.498C51.8372 31.5244 51.7266 31.5677 51.6245 31.63C51.5235 31.6902 51.4405 31.7704 51.3788 31.8696C51.3161 31.9688 51.2852 32.0913 51.2852 32.2369C51.2852 32.3583 51.315 32.4628 51.3746 32.5473C51.4341 32.6317 51.5086 32.7024 51.599 32.7605C51.6894 32.8185 51.7893 32.8661 51.8957 32.9051C52.0042 32.9431 52.102 32.9737 52.1924 32.9959L52.9049 33.1627C53.0581 33.1859 53.2091 33.2281 53.3591 33.2893C53.5101 33.3495 53.643 33.4308 53.7579 33.5289C53.8738 33.6282 53.9684 33.7506 54.0429 33.8963C54.1163 34.043 54.1524 34.214 54.1524 34.4114C54.1524 34.6573 54.0982 34.8653 53.9918 35.0363C53.8834 35.2083 53.7462 35.3487 53.5803 35.4564C53.4133 35.564 53.2251 35.6411 53.0166 35.6875C52.8071 35.734 52.5997 35.7583 52.3966 35.7583C51.8819 35.7583 51.465 35.6327 51.1449 35.3814C50.8248 35.1313 50.6429 34.7291 50.5972 34.176H51.1321C51.1555 34.5486 51.2863 34.8304 51.5267 35.0183C51.767 35.2083 52.0659 35.3033 52.4221 35.3033C52.5519 35.3033 52.6859 35.2885 52.8252 35.26C52.9634 35.2305 53.0921 35.1809 53.2102 35.1102C53.3303 35.0416 53.4282 34.9529 53.5037 34.8442C53.5803 34.7365 53.6185 34.6045 53.6185 34.4462C53.6185 34.3132 53.592 34.2013 53.5377 34.1105C53.4835 34.0198 53.4122 33.9448 53.3218 33.8836C53.2304 33.8224 53.1272 33.7717 53.0113 33.7305C52.8964 33.6904 52.7784 33.6545 52.6593 33.625L51.9723 33.4688C51.7968 33.4223 51.6362 33.3674 51.4884 33.3062C51.3416 33.246 51.214 33.17 51.1023 33.0803C50.9928 32.9895 50.9056 32.8787 50.8439 32.7478C50.7812 32.6159 50.7503 32.4554 50.7503 32.2623C50.7503 32.0353 50.8003 31.8411 50.8992 31.6764C50.997 31.5139 51.1257 31.383 51.2852 31.2838C51.4426 31.1856 51.6202 31.1117 51.8159 31.0653C52.0105 31.0188 52.2041 30.9956 52.3966 30.9956C52.6178 30.9956 52.822 31.0241 53.0113 31.0832C53.2017 31.1413 53.3686 31.2321 53.5122 31.3545C53.6558 31.4759 53.7717 31.6279 53.8557 31.8073C53.9408 31.9889 53.9886 32.2021 54.0003 32.4459H53.4654C53.4601 32.277 53.4261 32.1303 53.3633 32.0047Z" fill="white"/>
<path fill-rule="evenodd" clip-rule="evenodd" d="M57.8781 31.6242C57.6845 31.7351 57.5261 31.8807 57.3984 32.0612C57.2719 32.2417 57.1751 32.4476 57.1092 32.6777C57.0454 32.9078 57.0124 33.1421 57.0124 33.3807C57.0124 33.6203 57.0454 33.8536 57.1092 34.0837C57.1751 34.3148 57.2719 34.5196 57.3984 34.7001C57.5261 34.8806 57.6845 35.0273 57.8781 35.1371C58.0706 35.248 58.2939 35.3028 58.5481 35.3028C58.8022 35.3028 59.0256 35.248 59.2181 35.1371C59.4106 35.0273 59.5701 34.8806 59.6977 34.7001C59.8253 34.5196 59.921 34.3148 59.9859 34.0837C60.0508 33.8536 60.0838 33.6203 60.0838 33.3807C60.0838 33.1421 60.0508 32.9078 59.9859 32.6777C59.921 32.4476 59.8253 32.2417 59.6977 32.0612C59.5701 31.8807 59.4106 31.7351 59.2181 31.6242C59.0256 31.5145 58.8022 31.4585 58.5481 31.4585C58.2939 31.4585 58.0706 31.5145 57.8781 31.6242ZM59.435 31.1883C59.6924 31.316 59.9083 31.4881 60.0838 31.7034C60.2582 31.9187 60.3922 32.171 60.4826 32.4592C60.573 32.7473 60.6176 33.0545 60.6176 33.3807C60.6176 33.7079 60.573 34.0151 60.4826 34.3022C60.3922 34.5914 60.2582 34.8437 60.0838 35.059C59.9083 35.2743 59.6924 35.4443 59.435 35.5688C59.1777 35.6945 58.8809 35.7578 58.5481 35.7578C58.2141 35.7578 57.9185 35.6945 57.6611 35.5688C57.4038 35.4443 57.1879 35.2743 57.0124 35.059C56.8369 34.8437 56.704 34.5914 56.6136 34.3022C56.5232 34.0151 56.4785 33.7079 56.4785 33.3807C56.4785 33.0545 56.5232 32.7473 56.6136 32.4592C56.704 32.171 56.8369 31.9187 57.0124 31.7034C57.1879 31.4881 57.4038 31.316 57.6611 31.1883C57.9185 31.0595 58.2141 30.9951 58.5481 30.9951C58.8809 30.9951 59.1777 31.0595 59.435 31.1883Z" fill="white"/>
<path fill-rule="evenodd" clip-rule="evenodd" d="M63.6804 31.1262V32.1839H63.6974C63.8335 31.8165 64.0441 31.5347 64.3291 31.3363C64.6152 31.1389 64.9555 31.0481 65.3511 31.065V31.616C65.1087 31.6044 64.8885 31.6371 64.6896 31.7163C64.4918 31.7954 64.3217 31.9073 64.177 32.053C64.0324 32.1986 63.9207 32.3718 63.841 32.5723C63.7623 32.7739 63.7229 32.9935 63.7229 33.232V35.6345H63.188V31.1262H63.6804Z" fill="white"/>
<path fill-rule="evenodd" clip-rule="evenodd" d="M69.3728 31.1262V31.5886H68.4816V34.6296C68.4816 34.8101 68.5061 34.9526 68.5539 35.054C68.6018 35.1553 68.723 35.2123 68.9145 35.225C69.0676 35.225 69.2197 35.2155 69.3728 35.1975V35.6609C69.2941 35.6609 69.2144 35.6641 69.1346 35.6704C69.0559 35.6757 68.9772 35.6789 68.8975 35.6789C68.5412 35.6789 68.2923 35.6071 68.1509 35.4646C68.0094 35.3221 67.9414 35.0592 67.9467 34.674V31.5886H67.1831V31.1262H67.9467V29.772H68.4816V31.1262H69.3728Z" fill="white"/>
<path fill-rule="evenodd" clip-rule="evenodd" d="M76.5672 34.3856C76.6704 34.601 76.8097 34.773 76.9884 34.9007C77.166 35.0285 77.3766 35.1203 77.619 35.1762C77.8636 35.2322 78.1231 35.2596 78.4007 35.2596C78.5581 35.2596 78.7315 35.2364 78.9176 35.19C79.1047 35.1435 79.2792 35.0675 79.4397 34.9672C79.6014 34.8649 79.7354 34.734 79.8428 34.5735C79.9502 34.4131 80.0034 34.2199 80.0034 33.9919C80.0034 33.8177 79.9651 33.6657 79.8896 33.538C79.813 33.4092 79.7141 33.3026 79.5929 33.215C79.4706 33.1274 79.3366 33.0556 79.1898 32.9997C79.042 32.9459 78.8974 32.9005 78.757 32.8656L77.4074 32.5236C77.2319 32.4772 77.0618 32.4202 76.8948 32.3495C76.7268 32.2798 76.5821 32.1869 76.4566 32.0708C76.3322 31.9536 76.2333 31.8111 76.1557 31.6412C76.0802 31.4734 76.0419 31.2665 76.0419 31.0216C76.0419 30.8706 76.0695 30.6922 76.127 30.4885C76.1833 30.2848 76.2886 30.0927 76.4449 29.9122C76.6002 29.7317 76.8129 29.5786 77.0852 29.453C77.3564 29.3285 77.7041 29.2651 78.1295 29.2651C78.4284 29.2651 78.7144 29.3052 78.9856 29.3876C79.2568 29.4699 79.495 29.5913 79.6982 29.7539C79.9024 29.9185 80.0651 30.1201 80.1863 30.3619C80.3086 30.6036 80.3682 30.8854 80.3682 31.2052H79.7918C79.7801 30.9667 79.729 30.7577 79.6354 30.5804C79.5418 30.403 79.4206 30.2542 79.2696 30.1349C79.1196 30.0146 78.9473 29.9249 78.7527 29.8636C78.557 29.8024 78.3528 29.7718 78.138 29.7718C77.9392 29.7718 77.7477 29.794 77.5648 29.8372C77.3808 29.8805 77.2192 29.9512 77.0809 30.0473C76.9427 30.1434 76.831 30.2711 76.7459 30.4273C76.6608 30.5846 76.6194 30.7799 76.6194 31.0131C76.6194 31.1577 76.6428 31.2844 76.6906 31.3931C76.7385 31.5008 76.8055 31.5926 76.8906 31.6686C76.9756 31.7436 77.0735 31.8059 77.183 31.8523C77.2936 31.8987 77.4106 31.9367 77.535 31.9652L79.0112 32.34C79.226 32.3991 79.428 32.4709 79.6173 32.5553C79.8077 32.6397 79.9736 32.7442 80.1182 32.8688C80.2629 32.9955 80.3756 33.1475 80.4575 33.328C80.5394 33.5085 80.5809 33.727 80.5809 33.9835C80.5809 34.0542 80.5745 34.146 80.5596 34.2632C80.5458 34.3793 80.5117 34.5028 80.4575 34.6337C80.4033 34.7656 80.3278 34.8976 80.2289 35.0316C80.1299 35.1657 79.9949 35.2871 79.8215 35.3947C79.6482 35.5035 79.4355 35.59 79.1813 35.6565C78.9271 35.7241 78.6209 35.7579 78.2646 35.7579C77.9083 35.7579 77.5776 35.7156 77.2723 35.6312C76.9661 35.5467 76.7066 35.4169 76.4917 35.2427C76.2769 35.0675 76.111 34.8437 75.9951 34.5693C75.8792 34.2949 75.8302 33.9666 75.8462 33.5813H76.4237C76.4173 33.9022 76.4652 34.1703 76.5672 34.3856Z" fill="white"/>
<path fill-rule="evenodd" clip-rule="evenodd" d="M83.6956 29.3965V31.9045H83.7126C83.8136 31.63 83.9944 31.4105 84.255 31.2448C84.5155 31.079 84.8005 30.9957 85.1122 30.9957C85.4174 30.9957 85.6726 31.0368 85.88 31.1181C86.0863 31.1994 86.2512 31.3134 86.3766 31.4633C86.5011 31.6121 86.5883 31.7936 86.6393 32.009C86.6893 32.2243 86.7159 32.466 86.7159 32.7342V35.6348H86.181V32.8218C86.181 32.6297 86.1639 32.4502 86.1299 32.2834C86.0969 32.1177 86.0363 31.9731 85.9523 31.8517C85.8672 31.7293 85.7534 31.6332 85.6088 31.5635C85.4642 31.4928 85.2844 31.458 85.0696 31.458C84.8548 31.458 84.6634 31.497 84.4975 31.5762C84.3305 31.6554 84.189 31.763 84.0721 31.8992C83.9572 32.0364 83.8657 32.2 83.8019 32.389C83.736 32.579 83.7009 32.7838 83.6956 33.0054V35.6348H83.1606V29.3965H83.6956Z" fill="white"/>
<path fill-rule="evenodd" clip-rule="evenodd" d="M92.2816 33.1717C92.2476 33.2361 92.1817 33.2814 92.086 33.311C91.9902 33.3406 91.9052 33.3606 91.8318 33.3722C91.6053 33.4134 91.3724 33.4503 91.132 33.482C90.8906 33.5137 90.6715 33.5612 90.4748 33.6256C90.2759 33.6899 90.1132 33.7818 89.9866 33.9C89.859 34.0203 89.7952 34.1913 89.7952 34.4119C89.7952 34.5523 89.8218 34.6758 89.876 34.7835C89.9292 34.8912 90.0015 34.9851 90.0919 35.0632C90.1823 35.1413 90.2876 35.2015 90.4056 35.2427C90.5258 35.2828 90.6471 35.3039 90.7715 35.3039C90.9746 35.3039 91.1703 35.2712 91.3564 35.2078C91.5436 35.1434 91.7052 35.0495 91.8445 34.9271C91.9828 34.8057 92.0934 34.6568 92.1753 34.4816C92.2572 34.3075 92.2987 34.1101 92.2987 33.8884V33.1717H92.2816ZM89.608 31.8258C89.6984 31.6337 89.8218 31.4764 89.9781 31.354C90.1323 31.2316 90.3152 31.1408 90.5258 31.0827C90.7343 31.0247 90.9661 30.9951 91.2213 30.9951C91.4138 30.9951 91.6053 31.0152 91.7977 31.0521C91.9902 31.0901 92.1625 31.1619 92.3146 31.2664C92.4677 31.372 92.5922 31.5187 92.689 31.7076C92.7847 31.8976 92.8336 32.1425 92.8336 32.4454V34.8405C92.8336 35.0611 92.9367 35.173 93.1463 35.173C93.209 35.173 93.2654 35.1614 93.3164 35.1371V35.6005C93.2537 35.6121 93.1984 35.6206 93.1505 35.6269C93.1027 35.6322 93.042 35.6353 92.9687 35.6353C92.8336 35.6353 92.724 35.6163 92.6422 35.5783C92.5603 35.5403 92.4965 35.4865 92.4507 35.4168C92.405 35.3472 92.3763 35.2638 92.3614 35.1688C92.3486 35.0717 92.3412 34.9651 92.3412 34.8489H92.3242C92.2274 34.9946 92.1296 35.1244 92.0317 35.2374C91.9317 35.3514 91.8211 35.4453 91.6999 35.5224C91.5787 35.5973 91.4404 35.6565 91.2841 35.6966C91.1288 35.7377 90.9438 35.7578 90.7289 35.7578C90.5258 35.7578 90.3344 35.7335 90.1557 35.6839C89.9781 35.6343 89.8218 35.5551 89.6888 35.4475C89.5559 35.3398 89.4517 35.2026 89.3762 35.0368C89.2985 34.8701 89.2603 34.6748 89.2603 34.4468C89.2603 34.1322 89.3294 33.8863 89.4644 33.7089C89.6006 33.5316 89.7792 33.3954 90.0026 33.3026C90.2259 33.2097 90.479 33.1442 90.7577 33.1052C91.0384 33.0672 91.3234 33.0313 91.6106 32.9965C91.7244 32.9848 91.8233 32.9711 91.9073 32.9532C91.9934 32.9352 92.0636 32.9046 92.12 32.8613C92.1764 32.817 92.22 32.7579 92.2519 32.6819C92.2827 32.607 92.2987 32.5067 92.2987 32.3853C92.2987 32.1984 92.2678 32.0465 92.2093 31.9261C92.1498 31.8068 92.0679 31.7118 91.9626 31.6422C91.8594 31.5725 91.7361 31.524 91.5978 31.4976C91.4606 31.4722 91.3117 31.4585 91.1522 31.4585C90.813 31.4585 90.5364 31.5419 90.3216 31.7076C90.1068 31.8744 89.9941 32.1393 89.9824 32.5067H89.4474C89.4644 32.2449 89.5176 32.0179 89.608 31.8258Z" fill="white"/>
<path fill-rule="evenodd" clip-rule="evenodd" d="M96.1667 31.1262V32.1839H96.1837C96.3199 31.8165 96.5304 31.5347 96.8154 31.3363C97.1015 31.1389 97.4418 31.0481 97.8375 31.065V31.616C97.595 31.6044 97.3748 31.6371 97.176 31.7163C96.9782 31.7954 96.808 31.9073 96.6634 32.053C96.5187 32.1986 96.4071 32.3718 96.3273 32.5723C96.2486 32.7739 96.2093 32.9935 96.2093 33.232V35.6345H95.6743V31.1262H96.1667Z" fill="white"/>
<path fill-rule="evenodd" clip-rule="evenodd" d="M100.129 30.2789H100.664V29.3965H100.129V30.2789ZM100.664 31.1265V36.0454C100.664 36.2143 100.652 36.3758 100.625 36.5268C100.601 36.6777 100.552 36.8107 100.481 36.9237C100.411 37.0377 100.315 37.1284 100.194 37.1949C100.071 37.2625 99.9171 37.2952 99.7299 37.2952C99.6682 37.2952 99.6076 37.2931 99.5481 37.2868C99.4896 37.2804 99.4279 37.2783 99.3662 37.2783V36.8234C99.4119 36.8287 99.4587 36.8339 99.5098 36.836C99.5608 36.8392 99.6066 36.8382 99.6459 36.8318C99.8554 36.8318 99.9884 36.7695 100.045 36.645C100.101 36.5183 100.129 36.3632 100.129 36.1774V31.1265H100.664Z" fill="white"/>
<path fill-rule="evenodd" clip-rule="evenodd" d="M106.246 33.1717C106.212 33.2361 106.146 33.2814 106.05 33.311C105.955 33.3406 105.87 33.3606 105.796 33.3722C105.57 33.4134 105.337 33.4503 105.096 33.482C104.855 33.5137 104.636 33.5612 104.439 33.6256C104.24 33.6899 104.078 33.7818 103.951 33.9C103.823 34.0203 103.76 34.1913 103.76 34.4119C103.76 34.5523 103.786 34.6758 103.84 34.7835C103.894 34.8912 103.966 34.9851 104.056 35.0632C104.147 35.1413 104.252 35.2015 104.37 35.2427C104.49 35.2828 104.611 35.3039 104.736 35.3039C104.939 35.3039 105.135 35.2712 105.321 35.2078C105.508 35.1434 105.67 35.0495 105.809 34.9271C105.947 34.8057 106.058 34.6568 106.14 34.4816C106.222 34.3075 106.263 34.1101 106.263 33.8884V33.1717H106.246ZM103.572 31.8258C103.663 31.6337 103.786 31.4764 103.942 31.354C104.097 31.2316 104.28 31.1408 104.49 31.0827C104.699 31.0247 104.93 30.9951 105.186 30.9951C105.378 30.9951 105.57 31.0152 105.762 31.0521C105.955 31.0901 106.127 31.1619 106.279 31.2664C106.432 31.372 106.557 31.5187 106.653 31.7076C106.749 31.8976 106.798 32.1425 106.798 32.4454V34.8405C106.798 35.0611 106.901 35.173 107.111 35.173C107.173 35.173 107.23 35.1614 107.281 35.1371V35.6005C107.218 35.6121 107.163 35.6206 107.115 35.6269C107.067 35.6322 107.006 35.6353 106.933 35.6353C106.798 35.6353 106.688 35.6163 106.607 35.5783C106.525 35.5403 106.461 35.4865 106.415 35.4168C106.369 35.3472 106.341 35.2638 106.326 35.1688C106.313 35.0717 106.306 34.9651 106.306 34.8489H106.289C106.192 34.9946 106.094 35.1244 105.996 35.2374C105.896 35.3514 105.785 35.4453 105.664 35.5224C105.543 35.5973 105.405 35.6565 105.248 35.6966C105.093 35.7377 104.908 35.7578 104.693 35.7578C104.49 35.7578 104.299 35.7335 104.12 35.6839C103.942 35.6343 103.786 35.5551 103.653 35.4475C103.52 35.3398 103.416 35.2026 103.341 35.0368C103.263 34.8701 103.225 34.6748 103.225 34.4468C103.225 34.1322 103.294 33.8863 103.429 33.7089C103.565 33.5316 103.744 33.3954 103.967 33.3026C104.19 33.2097 104.443 33.1442 104.722 33.1052C105.003 33.0672 105.288 33.0313 105.575 32.9965C105.689 32.9848 105.788 32.9711 105.872 32.9532C105.958 32.9352 106.028 32.9046 106.084 32.8613C106.141 32.817 106.184 32.7579 106.216 32.6819C106.247 32.607 106.263 32.5067 106.263 32.3853C106.263 32.1984 106.232 32.0465 106.174 31.9261C106.114 31.8068 106.032 31.7118 105.927 31.6422C105.824 31.5725 105.7 31.524 105.562 31.4976C105.425 31.4722 105.276 31.4585 105.117 31.4585C104.777 31.4585 104.501 31.5419 104.286 31.7076C104.071 31.8744 103.958 32.1393 103.947 32.5067H103.412C103.429 32.2449 103.482 32.0179 103.572 31.8258Z" fill="white"/>
<path fill-rule="evenodd" clip-rule="evenodd" d="M110.167 29.3965V31.9045H110.184C110.285 31.63 110.466 31.4105 110.726 31.2448C110.987 31.079 111.272 30.9957 111.583 30.9957C111.889 30.9957 112.144 31.0368 112.351 31.1181C112.558 31.1994 112.722 31.3134 112.848 31.4633C112.972 31.6121 113.059 31.7936 113.111 32.009C113.16 32.2243 113.187 32.466 113.187 32.7342V35.6348H112.652V32.8218C112.652 32.6297 112.635 32.4502 112.601 32.2834C112.568 32.1177 112.508 31.9731 112.424 31.8517C112.338 31.7293 112.225 31.6332 112.08 31.5635C111.935 31.4928 111.756 31.458 111.541 31.458C111.326 31.458 111.135 31.497 110.969 31.5762C110.802 31.6554 110.66 31.763 110.543 31.8992C110.428 32.0364 110.337 32.2 110.273 32.389C110.207 32.579 110.172 32.7838 110.167 33.0054V35.6348H109.632V29.3965H110.167Z" fill="white"/>
</g>
<defs>
<clipPath id="clip0_710_505">
<rect width="134" height="38" fill="white"/>
</clipPath>
</defs>
</svg>
